<?xml version="1.0" encoding="UTF-8" standalone="no"?>
<!-- Created with Inkscape (http://www.inkscape.org/) -->

<svg
   xmlns:dc="http://purl.org/dc/elements/1.1/"
   xmlns:cc="http://creativecommons.org/ns#"
   xmlns:rdf="http://www.w3.org/1999/02/22-rdf-syntax-ns#"
   xmlns:svg="http://www.w3.org/2000/svg"
   xmlns="http://www.w3.org/2000/svg"
   xmlns:sodipodi="http://sodipodi.sourceforge.net/DTD/sodipodi-0.dtd"
   xmlns:inkscape="http://www.inkscape.org/namespaces/inkscape"
   width="495"
   height="506.06647"
   id="svg2"
   version="1.1"
   inkscape:version="0.48.1 "
   sodipodi:docname="logo.svg"
   inkscape:export-filename="D:\dev\github\Plat5\resources\logo.png"
   inkscape:export-xdpi="90"
   inkscape:export-ydpi="90">
  <title
     id="title3789">Plat5 Logo</title>
  <defs
     id="defs4" />
  <sodipodi:namedview
     id="base"
     pagecolor="#ffffff"
     bordercolor="#666666"
     borderopacity="1.0"
     inkscape:pageopacity="0.0"
     inkscape:pageshadow="2"
     inkscape:zoom="1"
     inkscape:cx="438.06942"
     inkscape:cy="176.38942"
     inkscape:document-units="px"
     inkscape:current-layer="layer3"
     showgrid="false"
     showguides="true"
     inkscape:guide-bbox="true"
     fit-margin-top="0"
     fit-margin-left="0"
     fit-margin-right="0"
     fit-margin-bottom="0"
     inkscape:window-width="1846"
     inkscape:window-height="1058"
     inkscape:window-x="66"
     inkscape:window-y="-8"
     inkscape:window-maximized="1"
     units="px" />
  <metadata
     id="metadata7">
    <rdf:RDF>
      <cc:Work
         rdf:about="">
        <dc:format>image/svg+xml</dc:format>
        <dc:type
           rdf:resource="http://purl.org/dc/dcmitype/StillImage" />
        <dc:title>Plat5 Logo</dc:title>
        <dc:creator>
          <cc:Agent>
            <dc:title>Ian Beveridge</dc:title>
          </cc:Agent>
        </dc:creator>
        <dc:subject>
          <rdf:Bag>
            <rdf:li>kupio plat5</rdf:li>
          </rdf:Bag>
        </dc:subject>
      </cc:Work>
    </rdf:RDF>
  </metadata>
  <g
     inkscape:groupmode="layer"
     id="layer3"
     inkscape:label="bg"
     transform="translate(3,0.06647)" />
  <g
     inkscape:groupmode="layer"
     id="layer2"
     inkscape:label="Layer"
     transform="translate(-126.17522,53.9965)" />
  <g
     inkscape:label="text"
     inkscape:groupmode="layer"
     id="layer1"
     transform="translate(-126.17522,53.9965)">
    <g
       style="font-size:243.36718750000000000px;font-style:normal;font-weight:normal;line-height:125%;letter-spacing:0px;word-spacing:0px;fill:#ffffff;fill-opacity:1;stroke:none;font-family:Sans"
       id="text2985">
      <path
         d="m 189.77935,389.36514 c -5.35739,0 -10.30622,-0.56692 -14.84653,-1.70077 l 6.0827,-24.5833 c 2.59443,0.97544 5.5157,1.46314 8.76383,1.46312 4.86708,2e-5 9.49036,-0.9333 13.86988,-2.79998 4.37936,-1.86661 8.19187,-4.42273 11.43755,-7.66835 3.24549,-3.24555 5.80037,-7.05806 7.66464,-11.43754 1.86407,-4.37939 2.79615,-9.08438 2.79625,-14.11497 -1e-4,-4.86708 -0.93218,-9.45076 -2.79625,-13.75105 -1.86427,-4.30014 -4.41915,-8.07181 -7.66464,-11.315 -3.24568,-3.24303 -7.05819,-5.7979 -11.43755,-7.66464 -4.37952,-1.86655 -9.0028,-2.79988 -13.86988,-2.79997 -4.86721,9e-5 -9.49173,0.93342 -13.87359,2.79997 -4.38197,1.86674 -8.19572,4.42161 -11.44126,7.66464 -3.24563,3.24319 -5.8005,7.01486 -7.66464,11.315 -1.8642,4.30029 -2.79629,8.88397 -2.79626,13.75105 l 0,0.49018 0,65.95155 0,51.10503 -24.82838,-25.06604 0,-66.19665 0,-25.79389 0,-0.49018 c -1e-5,-8.27359 1.58194,-16.10161 4.74584,-23.48411 3.16387,-7.38232 7.46409,-13.8314 12.90065,-19.34727 5.43652,-5.51566 11.846,-9.89633 19.22845,-13.14204 7.38236,-3.24547 15.29209,-4.86826 23.72919,-4.86838 8.27358,1.2e-4 16.14122,1.62291 23.60293,4.86838 7.46154,3.24571 13.95148,7.62638 19.46982,13.14204 5.51813,5.51587 9.89881,11.96495 13.14204,19.34727 3.24299,7.3825 4.86454,15.21052 4.86467,23.48411 -1.3e-4,8.43709 -1.62168,16.34682 -4.86467,23.72919 -3.24323,7.38244 -7.62391,13.83153 -13.14204,19.34727 -5.51834,5.51578 -12.00828,9.85561 -19.46982,13.01949 -7.46171,3.1639 -15.32935,4.74584 -23.60293,4.74584 z"
         style="font-variant:normal;font-stretch:normal;fill:#ffffff;font-family:Abode;-inkscape-font-specification:Abode"
         id="path2991"
         inkscape:connector-curvature="0" />
      <path
         d="m 260.36534,236.04263 25.31114,-25.31114 0,178.63365 -25.31114,0 z"
         style="font-variant:normal;font-stretch:normal;fill:#ffffff;font-family:Abode;-inkscape-font-specification:Abode"
         id="path2993"
         inkscape:connector-curvature="0" />
      <path
         d="m 356.3813,389.36514 c -8.4371,0 -16.34559,-1.62279 -23.72548,-4.86838 -7.37997,-3.24558 -13.82906,-7.62626 -19.34727,-13.14204 -5.51826,-5.51574 -9.85933,-11.96483 -13.02321,-19.34727 -3.1639,-7.38237 -4.74584,-15.2104 -4.74583,-23.4841 -1e-5,-8.43698 1.58193,-16.3467 4.74583,-23.7292 3.16388,-7.38232 7.50495,-13.8314 13.02321,-19.34727 5.51821,-5.51566 11.9673,-9.85549 19.34727,-13.01949 7.37989,-3.16377 15.28838,-4.74572 23.72548,-4.74584 8.43697,1.2e-4 16.3467,1.58207 23.72919,4.74584 7.38232,3.164 13.83141,7.50383 19.34728,13.01949 5.51565,5.51587 9.85548,11.96495 13.01949,19.34727 3.16377,7.3825 4.74571,15.29222 4.74584,23.7292 l 0,25.79389 0,35.0479 -25.31114,0 0,-60.84179 c -1e-4,-5.03048 -0.93219,-9.73546 -2.79626,-14.11497 -1.86426,-4.37937 -4.41914,-8.19188 -7.66464,-11.43755 -3.24567,-3.2455 -7.01857,-5.80161 -11.31871,-7.66835 -4.30029,-1.86655 -8.88397,-2.79988 -13.75105,-2.79997 -4.8672,9e-5 -9.44964,0.93342 -13.74733,2.79997 -4.29779,1.86674 -8.06946,4.42285 -11.315,7.66835 -3.24563,3.24567 -5.80174,7.05818 -7.66836,11.43755 -1.86667,4.37951 -2.8,9.08449 -2.79997,14.11497 -3e-5,4.8672 0.9333,9.45088 2.79997,13.75104 1.86662,4.30027 4.42273,8.07193 7.66836,11.315 3.24554,3.24315 7.01721,5.79803 11.315,7.66464 4.29769,1.86668 8.88013,2.8 13.74733,2.79997 1.62397,3e-5 3.12545,-0.0804 4.50446,-0.24137 1.37887,-0.16089 2.79866,-0.40475 4.25938,-0.73156 l 5.8376,24.5833 c -2.26778,0.32183 -4.65927,0.68575 -7.17446,1.09176 -2.51534,0.40601 -4.991,0.60901 -7.42698,0.60901 z"
         style="font-variant:normal;font-stretch:normal;fill:#ffffff;font-family:Abode;-inkscape-font-specification:Abode"
         id="path2995"
         inkscape:connector-curvature="0" />
      <path
         d="m 452.04077,328.27826 c -3e-5,4.8672 0.93329,9.49172 2.79997,13.87359 1.86661,4.38196 4.42273,8.19447 7.66835,11.43754 3.24555,3.24315 7.05806,5.79803 11.43755,7.66464 4.37938,1.86668 9.00267,2.8 13.86988,2.79997 l 0,25.31114 c -8.27371,0 -16.06089,-1.58194 -23.36156,-4.74584 -7.30075,-3.16388 -13.70899,-7.42325 -19.22473,-12.77811 -5.51579,-5.35483 -9.93731,-11.68261 -13.26458,-18.98335 -3.32729,-7.30068 -5.07263,-15.08786 -5.23602,-23.36156 l 0,-93.93641 25.31114,-25.55623 0,57.67791 9.00892,0 26.28407,0 0,25.31114 -35.29299,0 0,32.12167 0,3.1639 z"
         style="font-variant:normal;font-stretch:normal;fill:#ffffff;font-family:Abode;-inkscape-font-specification:Abode"
         id="path2997"
         inkscape:connector-curvature="0" />
      <path
         d="m 555.7288,272.06347 c 7.95174,1.1e-4 15.49754,1.54121 22.63742,4.62329 7.13971,3.0823 13.38579,7.30082 18.73827,12.65557 5.35226,5.35494 9.57078,11.60102 12.65556,18.73826 3.08456,7.1374 4.62689,14.68196 4.62701,22.63371 -1.2e-4,8.11031 -1.54245,15.73534 -4.62701,22.87509 -3.08478,7.13983 -7.3033,13.3463 -12.65556,18.61944 -5.35248,5.27316 -11.59856,9.45083 -18.73827,12.53302 -7.13988,3.0822 -14.68568,4.62329 -22.63742,4.62329 -8.11032,0 -15.73534,-1.54109 -22.87509,-4.62329 -7.13984,-3.08219 -13.34507,-7.25986 -18.61572,-12.53302 -5.2707,-5.27314 -9.44837,-11.47961 -12.53303,-18.61944 -3.08467,-7.13975 -4.62701,-14.76478 -4.627,-22.87509 -1e-5,-5.03047 0.56939,-9.73669 1.7082,-14.11868 l 23.60294,6.09012 c -0.48526,1.29731 -0.80957,2.63541 -0.97294,4.01428 -0.16342,1.37901 -0.24512,2.7171 -0.24509,4.01428 -3e-5,4.8672 0.89245,9.36919 2.67743,13.50596 1.78491,4.13687 4.25933,7.78723 7.42326,10.95108 3.16385,3.16392 6.81421,5.63834 10.95108,7.42326 4.13677,1.78498 8.63875,2.67745 13.50596,2.67743 4.70863,2e-5 9.13139,-0.89245 13.26829,-2.67743 4.13675,-1.78492 7.7871,-4.25934 10.95108,-7.42326 3.1638,-3.16385 5.63822,-6.81421 7.42326,-10.95108 1.78486,-4.13677 2.67733,-8.63876 2.67743,-13.50596 -10e-5,-4.70368 -0.89257,-9.12521 -2.67743,-13.26458 -1.78504,-4.13922 -4.25946,-7.78958 -7.42326,-10.95107 -3.16398,-3.16134 -6.81433,-5.63452 -10.95108,-7.41955 -4.1369,-1.78486 -8.55966,-2.67734 -13.26829,-2.67743 l -0.48276,0 -24.82096,0 0,-24.3382 24.82096,0 z m -25.30372,0 0,24.3382 -24.3382,0 0,-71.30641 0.48275,0 86.39803,0 17.03749,24.33078 -79.58007,0 z"
         style="font-variant:normal;font-stretch:normal;fill:#ffffff;font-family:Abode;-inkscape-font-specification:Abode"
         id="path2999"
         inkscape:connector-curvature="0" />
    </g>
    <path
       style="fill:#ffffff;fill-opacity:1"
       d="m 586.90121,445.26051 -423.2565,0 0,-27.27412 0,0 423.25649,0"
       id="path3019"
       inkscape:connector-curvature="0" />
    <path
       style="fill:#e34f26;fill-opacity:1"
       d="m 591.93254,417.98639 23.25035,0 0,27.27412 -23.25036,0"
       id="path3015"
       inkscape:connector-curvature="0" />
    <g
       transform="translate(0,-264.00014)"
       style="font-size:243.3671875px;font-style:normal;font-weight:normal;line-height:125%;letter-spacing:0px;word-spacing:0px;fill:#000000;fill-opacity:1;stroke:none;font-family:Sans"
       id="text2985-8">
      <path
         d="m 189.77935,389.36514 c -5.35739,0 -10.30622,-0.56692 -14.84653,-1.70077 l 6.0827,-24.5833 c 2.59443,0.97544 5.5157,1.46314 8.76383,1.46312 4.86708,2e-5 9.49036,-0.9333 13.86988,-2.79998 4.37936,-1.86661 8.19187,-4.42273 11.43755,-7.66835 3.24549,-3.24555 5.80037,-7.05806 7.66464,-11.43754 1.86407,-4.37939 2.79615,-9.08438 2.79625,-14.11497 -1e-4,-4.86708 -0.93218,-9.45076 -2.79625,-13.75105 -1.86427,-4.30014 -4.41915,-8.07181 -7.66464,-11.315 -3.24568,-3.24303 -7.05819,-5.7979 -11.43755,-7.66464 -4.37952,-1.86655 -9.0028,-2.79988 -13.86988,-2.79997 -4.86721,9e-5 -9.49173,0.93342 -13.87359,2.79997 -4.38197,1.86674 -8.19572,4.42161 -11.44126,7.66464 -3.24563,3.24319 -5.8005,7.01486 -7.66464,11.315 -1.8642,4.30029 -2.79629,8.88397 -2.79626,13.75105 l 0,0.49018 0,65.95155 0,51.10503 -24.82838,-25.06604 0,-66.19665 0,-25.79389 0,-0.49018 c -1e-5,-8.27359 1.58194,-16.10161 4.74584,-23.48411 3.16387,-7.38232 7.46409,-13.8314 12.90065,-19.34727 5.43652,-5.51566 11.846,-9.89633 19.22845,-13.14204 7.38236,-3.24547 15.29209,-4.86826 23.72919,-4.86838 8.27358,1.2e-4 16.14122,1.62291 23.60293,4.86838 7.46154,3.24571 13.95148,7.62638 19.46982,13.14204 5.51813,5.51587 9.89881,11.96495 13.14204,19.34727 3.24299,7.3825 4.86454,15.21052 4.86467,23.48411 -1.3e-4,8.43709 -1.62168,16.34682 -4.86467,23.72919 -3.24323,7.38244 -7.62391,13.83153 -13.14204,19.34727 -5.51834,5.51578 -12.00828,9.85561 -19.46982,13.01949 -7.46171,3.1639 -15.32935,4.74584 -23.60293,4.74584 z"
         style="font-variant:normal;font-stretch:normal;fill:#000000;font-family:Abode;-inkscape-font-specification:Abode"
         id="path2991-4"
         inkscape:connector-curvature="0" />
      <path
         d="m 260.36534,236.04263 25.31114,-25.31114 0,178.63365 -25.31114,0 z"
         style="font-variant:normal;font-stretch:normal;fill:#000000;font-family:Abode;-inkscape-font-specification:Abode"
         id="path2993-7"
         inkscape:connector-curvature="0" />
      <path
         d="m 356.3813,389.36514 c -8.4371,0 -16.34559,-1.62279 -23.72548,-4.86838 -7.37997,-3.24558 -13.82906,-7.62626 -19.34727,-13.14204 -5.51826,-5.51574 -9.85933,-11.96483 -13.02321,-19.34727 -3.1639,-7.38237 -4.74584,-15.2104 -4.74583,-23.4841 -1e-5,-8.43698 1.58193,-16.3467 4.74583,-23.7292 3.16388,-7.38232 7.50495,-13.8314 13.02321,-19.34727 5.51821,-5.51566 11.9673,-9.85549 19.34727,-13.01949 7.37989,-3.16377 15.28838,-4.74572 23.72548,-4.74584 8.43697,1.2e-4 16.3467,1.58207 23.72919,4.74584 7.38232,3.164 13.83141,7.50383 19.34728,13.01949 5.51565,5.51587 9.85548,11.96495 13.01949,19.34727 3.16377,7.3825 4.74571,15.29222 4.74584,23.7292 l 0,25.79389 0,35.0479 -25.31114,0 0,-60.84179 c -1e-4,-5.03048 -0.93219,-9.73546 -2.79626,-14.11497 -1.86426,-4.37937 -4.41914,-8.19188 -7.66464,-11.43755 -3.24567,-3.2455 -7.01857,-5.80161 -11.31871,-7.66835 -4.30029,-1.86655 -8.88397,-2.79988 -13.75105,-2.79997 -4.8672,9e-5 -9.44964,0.93342 -13.74733,2.79997 -4.29779,1.86674 -8.06946,4.42285 -11.315,7.66835 -3.24563,3.24567 -5.80174,7.05818 -7.66836,11.43755 -1.86667,4.37951 -2.8,9.08449 -2.79997,14.11497 -3e-5,4.8672 0.9333,9.45088 2.79997,13.75104 1.86662,4.30027 4.42273,8.07193 7.66836,11.315 3.24554,3.24315 7.01721,5.79803 11.315,7.66464 4.29769,1.86668 8.88013,2.8 13.74733,2.79997 1.62397,3e-5 3.12545,-0.0804 4.50446,-0.24137 1.37887,-0.16089 2.79866,-0.40475 4.25938,-0.73156 l 5.8376,24.5833 c -2.26778,0.32183 -4.65927,0.68575 -7.17446,1.09176 -2.51534,0.40601 -4.991,0.60901 -7.42698,0.60901 z"
         style="font-variant:normal;font-stretch:normal;fill:#000000;font-family:Abode;-inkscape-font-specification:Abode"
         id="path2995-4"
         inkscape:connector-curvature="0" />
      <path
         d="m 452.04077,328.27826 c -3e-5,4.8672 0.93329,9.49172 2.79997,13.87359 1.86661,4.38196 4.42273,8.19447 7.66835,11.43754 3.24555,3.24315 7.05806,5.79803 11.43755,7.66464 4.37938,1.86668 9.00267,2.8 13.86988,2.79997 l 0,25.31114 c -8.27371,0 -16.06089,-1.58194 -23.36156,-4.74584 -7.30075,-3.16388 -13.70899,-7.42325 -19.22473,-12.77811 -5.51579,-5.35483 -9.93731,-11.68261 -13.26458,-18.98335 -3.32729,-7.30068 -5.07263,-15.08786 -5.23602,-23.36156 l 0,-93.93641 25.31114,-25.55623 0,57.67791 9.00892,0 26.28407,0 0,25.31114 -35.29299,0 0,32.12167 0,3.1639 z"
         style="font-variant:normal;font-stretch:normal;fill:#000000;font-family:Abode;-inkscape-font-specification:Abode"
         id="path2997-3"
         inkscape:connector-curvature="0" />
      <path
         d="m 555.7288,272.06347 c 7.95174,1.1e-4 15.49754,1.54121 22.63742,4.62329 7.13971,3.0823 13.38579,7.30082 18.73827,12.65557 5.35226,5.35494 9.57078,11.60102 12.65556,18.73826 3.08456,7.1374 4.62689,14.68196 4.62701,22.63371 -1.2e-4,8.11031 -1.54245,15.73534 -4.62701,22.87509 -3.08478,7.13983 -7.3033,13.3463 -12.65556,18.61944 -5.35248,5.27316 -11.59856,9.45083 -18.73827,12.53302 -7.13988,3.0822 -14.68568,4.62329 -22.63742,4.62329 -8.11032,0 -15.73534,-1.54109 -22.87509,-4.62329 -7.13984,-3.08219 -13.34507,-7.25986 -18.61572,-12.53302 -5.2707,-5.27314 -9.44837,-11.47961 -12.53303,-18.61944 -3.08467,-7.13975 -4.62701,-14.76478 -4.627,-22.87509 -1e-5,-5.03047 0.56939,-9.73669 1.7082,-14.11868 l 23.60294,6.09012 c -0.48526,1.29731 -0.80957,2.63541 -0.97294,4.01428 -0.16342,1.37901 -0.24512,2.7171 -0.24509,4.01428 -3e-5,4.8672 0.89245,9.36919 2.67743,13.50596 1.78491,4.13687 4.25933,7.78723 7.42326,10.95108 3.16385,3.16392 6.81421,5.63834 10.95108,7.42326 4.13677,1.78498 8.63875,2.67745 13.50596,2.67743 4.70863,2e-5 9.13139,-0.89245 13.26829,-2.67743 4.13675,-1.78492 7.7871,-4.25934 10.95108,-7.42326 3.1638,-3.16385 5.63822,-6.81421 7.42326,-10.95108 1.78486,-4.13677 2.67733,-8.63876 2.67743,-13.50596 -10e-5,-4.70368 -0.89257,-9.12521 -2.67743,-13.26458 -1.78504,-4.13922 -4.25946,-7.78958 -7.42326,-10.95107 -3.16398,-3.16134 -6.81433,-5.63452 -10.95108,-7.41955 -4.1369,-1.78486 -8.55966,-2.67734 -13.26829,-2.67743 l -0.48276,0 -24.82096,0 0,-24.3382 24.82096,0 z m -25.30372,0 0,24.3382 -24.3382,0 0,-71.30641 0.48275,0 86.39803,0 17.03749,24.33078 -79.58007,0 z"
         style="font-variant:normal;font-stretch:normal;fill:#000000;font-family:Abode;-inkscape-font-specification:Abode"
         id="path2999-4"
         inkscape:connector-curvature="0" />
    </g>
    <path
       style="fill:#000000;fill-opacity:1"
       d="m 587.89738,181.26037 -423.2565,0 0,-27.27412 0,0 423.25649,0"
       id="path3019-4"
       inkscape:connector-curvature="0" />
    <path
       style="fill:#e34f26;fill-opacity:1"
       d="m 592.92871,153.98625 23.25035,0 0,27.27412 -23.25036,0"
       id="path3015-4"
       inkscape:connector-curvature="0" />
  </g>
</svg>
