<?xml version="1.0" encoding="UTF-8" standalone="no"?>
<!-- Created with Inkscape (http://www.inkscape.org/) -->

<svg
   xmlns:dc="http://purl.org/dc/elements/1.1/"
   xmlns:cc="http://creativecommons.org/ns#"
   xmlns:rdf="http://www.w3.org/1999/02/22-rdf-syntax-ns#"
   xmlns:svg="http://www.w3.org/2000/svg"
   xmlns="http://www.w3.org/2000/svg"
   xmlns:xlink="http://www.w3.org/1999/xlink"
   xmlns:sodipodi="http://sodipodi.sourceforge.net/DTD/sodipodi-0.dtd"
   xmlns:inkscape="http://www.inkscape.org/namespaces/inkscape"
   width="554.84375"
   height="264.20102"
   id="svg2"
   sodipodi:version="0.32"
   inkscape:version="0.48.1 "
   sodipodi:docname="KUPIO1.svg"
   version="1.0"
   style="display:inline"
   inkscape:output_extension="org.inkscape.output.svg.inkscape"
   inkscape:export-filename="C:\Users\Ian\Desktop\KUPIO1.png"
   inkscape:export-xdpi="90"
   inkscape:export-ydpi="90">
  <defs
     id="defs4">
    <linearGradient
       id="linearGradient3840">
      <stop
         style="stop-color:#ff0000;stop-opacity:1;"
         offset="0"
         id="stop3842" />
      <stop
         id="stop3850"
         offset="0.25"
         style="stop-color:#00ff00;stop-opacity:1;" />
      <stop
         id="stop3848"
         offset="0.5"
         style="stop-color:#ffff00;stop-opacity:1;" />
      <stop
         style="stop-color:#0000ff;stop-opacity:1;"
         offset="1"
         id="stop3844" />
    </linearGradient>
    <inkscape:perspective
       sodipodi:type="inkscape:persp3d"
       inkscape:vp_x="0 : 526.18109 : 1"
       inkscape:vp_y="0 : 1000 : 0"
       inkscape:vp_z="744.09448 : 526.18109 : 1"
       inkscape:persp3d-origin="372.04724 : 350.78739 : 1"
       id="perspective10" />
    <inkscape:perspective
       id="perspective2590"
       inkscape:persp3d-origin="372.04724 : 350.78739 : 1"
       inkscape:vp_z="744.09448 : 526.18109 : 1"
       inkscape:vp_y="0 : 1000 : 0"
       inkscape:vp_x="0 : 526.18109 : 1"
       sodipodi:type="inkscape:persp3d" />
    <linearGradient
       inkscape:collect="always"
       xlink:href="#linearGradient3840"
       id="linearGradient3846"
       x1="69.296478"
       y1="439.65414"
       x2="683.77228"
       y2="439.65414"
       gradientUnits="userSpaceOnUse" />
  </defs>
  <sodipodi:namedview
     id="base"
     pagecolor="#ffffff"
     bordercolor="#666666"
     borderopacity="1.0"
     gridtolerance="10000"
     guidetolerance="10"
     objecttolerance="10"
     inkscape:pageopacity="0.0"
     inkscape:pageshadow="2"
     inkscape:zoom="1.4142136"
     inkscape:cx="200.18335"
     inkscape:cy="66.277297"
     inkscape:document-units="px"
     inkscape:current-layer="layer2"
     showgrid="false"
     inkscape:window-width="1846"
     inkscape:window-height="1058"
     inkscape:window-x="66"
     inkscape:window-y="-8"
     showguides="false"
     inkscape:guide-bbox="true"
     inkscape:snap-global="true"
     inkscape:window-maximized="1"
     fit-margin-top="0"
     fit-margin-left="0"
     fit-margin-right="0"
     fit-margin-bottom="0">
    <sodipodi:guide
       orientation="0,1"
       position="115.59375,111.46383"
       id="guide2598" />
    <sodipodi:guide
       orientation="0,1"
       position="250.75,198.96383"
       id="guide2600" />
    <sodipodi:guide
       orientation="0,1"
       position="226.53125,269.27633"
       id="guide2602" />
    <sodipodi:guide
       orientation="0,1"
       position="160.125,63.807577"
       id="guide2604" />
    <sodipodi:guide
       orientation="0,1"
       position="363.46875,-24.317423"
       id="guide2395" />
    <sodipodi:guide
       orientation="1,0"
       position="512.96875,105.68258"
       id="guide2397" />
    <sodipodi:guide
       orientation="0,1"
       position="214.96875,179.68258"
       id="guide2398" />
    <sodipodi:guide
       orientation="0,1"
       position="402.46875,130.68258"
       id="guide2400" />
    <inkscape:grid
       type="xygrid"
       id="grid2402"
       empspacing="5"
       visible="true"
       enabled="true"
       snapvisiblegridlinesonly="true" />
  </sodipodi:namedview>
  <metadata
     id="metadata7">
    <rdf:RDF>
      <cc:Work
         rdf:about="">
        <dc:format>image/svg+xml</dc:format>
        <dc:type
           rdf:resource="http://purl.org/dc/dcmitype/StillImage" />
        <dc:title></dc:title>
      </cc:Work>
    </rdf:RDF>
  </metadata>
  <g
     inkscape:groupmode="layer"
     id="layer1"
     inkscape:label="Layer"
     style="display:inline"
     transform="translate(-75.03125,-323.84375)" />
  <g
     inkscape:groupmode="layer"
     id="layer2"
     inkscape:label="kupio"
     style="display:inline"
     transform="translate(-75.03125,-323.84375)">
    <path
       style="fill:#000000;fill-opacity:1;fill-rule:evenodd;stroke:none;display:inline"
       d="m 316.78125,323.84375 c -33.82457,33.48319 -97.4375,56.1875 -97.4375,56.1875 0,0 26.9811,-67.1337 -31,-54.34375 -53.125,11.71875 -113.3125,67.96875 -113.3125,67.96875 17.87055,-9.56178 54.747,-21.54092 66.125,-26.03125 97.93061,-38.64834 0.40894,122.83192 -48.84375,198.90625 0,0 77.3125,-77.32532 100.1875,-109.16907 52.3857,32.5848 101.68548,45.87639 148.64055,51.80953 l 4.61948,-11.81036 c -55.00885,-6.39006 -104.52577,-29.50161 -127.97878,-74.29885 0,0 76.4375,-50.28125 99,-99.21875 z M 597.75,338 l -2.15625,18.25 -16.25,8.59375 16.71875,7.6875 3.15625,18.125 12.46875,-13.53125 18.1875,2.59375 -9,-16.03125 8.09375,-16.5 -18.03125,3.625 z m -106.9375,28.3125 c -9.87575,0.1202 -18.33105,2.76952 -19.75,8.6875 -1.90504,7.94529 7.45144,7.24436 18,7.34375 10.54857,0.0994 17.17053,0.89599 18.0625,-4.4375 1.07204,-6.41024 -6.42803,-11.71405 -16.3125,-11.59375 z M 373.875,389.08093 c -17.83317,0.505 -29.0884,-3.0182 -40.40625,28.13782 -13.12883,36.14135 -19.05324,39.51785 -29.5,39.64343 -11.22202,0.1349 -20.50899,-10.53152 -12.70491,-35.45593 9.82196,-31.36907 20.42366,-31.32532 20.42366,-31.32532 l -33.3353,-1 c 0,0 -11.01493,18.56239 -15.25845,38.98157 -3.05207,14.68613 -0.70594,28.94168 6.50405,36.66109 6.52007,6.98075 19.30154,11.54698 30.4022,11.85734 34.97102,0.97774 40.93816,-18.35796 49.8125,-41.83093 12.08875,-31.97522 24.77943,-26.38782 33,-26.38782 L 319.42278,588.04476 378.2442,476.59375 c 9.50001,0 17.13177,0 25.4433,0 34.53342,0 49.79383,-24.34376 54.125,-38.28125 10.63354,-34.21825 -4.62283,-49.23157 -43.13294,-49.23157 -18.94672,0 -26.56711,-0.40318 -40.80456,0 z m 181.62552,0 c -25.95464,0 -48.85805,16.43749 -54.00052,42.20032 -5.14247,25.76283 7.05666,44.60085 36.31069,45.29968 29.25403,0.69883 48.91879,-17.81959 53.81431,-40.04968 5.72975,-26.01823 -10.16984,-47.45032 -36.12448,-47.45032 z m -54.48464,0 c -12.63609,0 -18.01029,0 -34.08619,0 9.84011,6.10392 6.46644,17.98397 -1.36719,46.88782 -3.70147,13.65735 -7.34561,25.95516 -11.88281,40.61218 7.74881,0 34.47681,0 34.47681,0 -9.38506,0 -1.76072,-27.02836 1.656,-40.70593 3.55924,-14.24805 7.62851,-33.7565 11.20338,-46.79407 z m -73.70338,19.28125 c 15.89881,0.19985 17.71876,17.89624 6.81533,33.77517 -12.05999,17.56325 -37.69664,15.22483 -49.12783,15.22483 14.57909,-34.9452 17.5736,-49.31097 42.3125,-49 z m 139.21157,26.04407 c -3.14917,14.09997 -15.53347,22.95581 -24.05816,22.95593 -15.41733,2.3e-4 -18.66526,-10.22323 -14.8967,-24.51843 3.76857,-14.2952 14.77245,-24.48157 24.05877,-24.48157 15.1399,0 17.34898,15.06161 14.89609,26.04407 z m 22.53843,48.4375 c -87.68577,21.28541 -154.73879,22.08782 -217.27739,19.0686 l -5.53576,10.0837 c 110.57671,4.42685 222.81315,-29.1523 222.81315,-29.1523 z"
       id="path3173"
       sodipodi:nodetypes="ccscscccccccccccccccccsssssssssccsssscccsssssssssccsccscsscsssssscccc"
       inkscape:connector-curvature="0" />
  </g>
</svg>
